<?xml version="1.0" encoding="UTF-8" standalone="no"?>
<svg
   xml:space="preserve"
   viewBox="5 30 275 205"
   version="1.1"
   id="svg10"
   sodipodi:docname="shoe.svg"
   inkscape:version="1.4 (e7c3feb1, 2024-10-09)"
   xmlns:inkscape="http://www.inkscape.org/namespaces/inkscape"
   xmlns:sodipodi="http://sodipodi.sourceforge.net/DTD/sodipodi-0.dtd"
   xmlns="http://www.w3.org/2000/svg"
   xmlns:svg="http://www.w3.org/2000/svg"><defs
   id="defs10" /><sodipodi:namedview
   id="namedview10"
   pagecolor="#ffffff"
   bordercolor="#000000"
   borderopacity="0.25"
   inkscape:showpageshadow="2"
   inkscape:pageopacity="0.0"
   inkscape:pagecheckerboard="0"
   inkscape:deskcolor="#d1d1d1"
   inkscape:zoom="4.0585366"
   inkscape:cx="133.42248"
   inkscape:cy="150.91647"
   inkscape:window-width="1720"
   inkscape:window-height="1038"
   inkscape:window-x="4"
   inkscape:window-y="42"
   inkscape:window-maximized="0"
   inkscape:current-layer="svg10" />
    <path
   d="m 259.57919,104.4688 c -9.29865,9.79624 -11.04279,15.20589 -15.01896,19.75586 -3.5948,4.11355 -3.32332,12.49731 -18.39485,20.68642 -6.12056,3.68548 -28.07102,7.95198 -41.09719,18.33263 -26.62339,21.21636 -76.93669,46.19977 -93.387238,42.99134 -35.44925,1.4436 -61.273452,3.19266 -64.036452,1.88566 -2.12,0.637 -6.603173,-0.81811 -16.667231,-1.7565 L 24.338,221.809 l 34.85,6.51 h 57.446 l 31.787,-9.574 27.191,-15.702 27.574,-14.936 32.553,-13.404 23.36,-16.085 18,-22.978 -2.12133,-19.85374 z"
   style="fill:#ffffff;stroke:none"
   transform="matrix(-1,0,0,1,285.417,0)"
   id="path1"
   sodipodi:nodetypes="cscscccccccccccccc" />
    <path
   d="m189.73 50.904 3.775.952c3.613.91 12.94 5.195 15.117 6.946.78.627-.129 2.215-3.663 6.407-7.166 8.502-18.316 23.581-22.896 30.966-10.327 16.65-14.29 27.465-16.547 45.156l-1.497 11.731-7.6 8.265c-5.35 5.817-9.554 9.468-14.19 12.325-7.792 4.804-23.2 11.282-36.651 15.41-5.31 1.63-9.944 2.98-10.297 3.003-.354.021-2.68-1.112-5.17-2.518-6.59-3.719-8.8-4.205-22.735-4.998-13.905-.792-20.147-2.345-28.538-7.102l-4.824-2.734 9.442-3.985c8.563-3.614 20.517-8.01 21.781-8.01.277 0 .962 2.883 1.523 6.409 1.086 6.826 2.033 8.703 4.395 8.703 2.747 0 3.52-1.974 2.445-6.244-.54-2.142-.836-4.038-.662-4.212.175-.174 2.584 1.408 5.355 3.513 6.769 5.144 12.82 7.943 14.837 6.864 2.007-1.074 1.97-3.869-.06-4.513-2.036-.646-10.561-6.315-14.25-9.476l-2.83-2.425 5.026.362c6.882.498 13.018-1.45 20.664-6.564 15.392-10.295 29.723-31.744 31.301-46.846 1.255-12.003-7.02-25.764-17.849-29.68-1.56-.564-2.837-1.334-2.837-1.712 0-1.154 3.875-6.838 5.998-8.8 4.945-4.569 11.862-5.36 30.75-3.516 16.648 1.626 28.541-1.531 36.77-9.76z"
   style="fill:#92c9d2;fill-opacity:1;stroke:#92c9d2;stroke-width:2.46980262;stroke-opacity:1"
   transform="matrix(-1 0 0 1 285.417 0)"
   id="path2" />
    <path
   d="m214.944 62.863 3.639 2.614 3.638 2.612-1.7 2.386c-2.742 3.85-7.268 14.238-9.318 21.387-2.673 9.322-2.71 28.36-.072 36.272l1.767 5.296-1.817.689c-1 .379-7.861 2.619-15.25 4.976-7.386 2.357-15.696 5.396-18.468 6.753h-.002c-6.036 2.957-6.298 3.004-6.293 1.127.006-2.86 2.575-17.486 3.87-22.039 3.722-13.086 17.082-34.548 34.61-55.593zM110.763 83.109c1.842-.029 6.984 3.056 9.627 5.864 6.804 7.226 8.586 16.506 5.097 26.538-4.94 14.204-19.455 31.412-31.565 37.417-4.94 2.45-7.168 3.072-10.965 3.072-2.62 0-5.412-.474-6.206-1.054-1.331-.974-1.257-1.277.978-3.954l2.421-2.9 2.705 2.276c3.093 2.603 5.548 2.883 7.755.885 2.514-2.275 1.903-5.245-1.779-8.645l-3.316-3.06 1.845-2.242 1.848-2.24 4.68 2.946c3.995 2.514 5.01 2.822 6.904 2.101 2.348-.892 3.609-3.878 2.763-6.542-.272-.86-2.552-2.81-5.065-4.332l-4.57-2.77 1.318-2.762 1.319-2.763 5.058 2.055c5.786 2.35 8.597 2.062 10.004-1.025 1.544-3.39-.152-5.738-5.754-7.964-2.697-1.072-4.986-2-5.087-2.061s.232-1.46.739-3.111l.921-3.002 4.299 1.145c2.364.63 5.121 1.15 6.127 1.155 2.541.014 4.468-2.173 4.468-5.07 0-2.94-2.034-4.404-8.046-5.79l-4.268-.985 2.266-6.419c1.246-3.53 2.666-6.552 3.155-6.715q.14-.045.324-.048z"
   style="fill:#92c9d2;fill-opacity:1;stroke:#92c9d2;stroke-width:2.46980262;stroke-opacity:1"
   transform="matrix(-1 0 0 1 285.417 0)"
   id="path3" />
    <path
   d="m212.99 133.555 2.546 5.441c1.4 2.992 2.546 5.737 2.546 6.102 0 .364-1.04 1.05-2.31 1.521-23.13 8.592-37.045 14.867-41.579 18.749-1.49 1.275-2.992 2.332-3.338 2.352-.733.04-.839-14.635-.125-17.296.67-2.5 9.027-6.193 27.277-12.055zm-49.062 19.608.576 10.386.577 10.385-3.841 3.417c-13.166 11.715-31.2 20.383-48.106 23.12-3.463.56-6.864 1.13-7.556 1.265-4.356.853-5.684.414-6.784-2.242-.611-1.475-2.213-3.936-3.558-5.467-1.344-1.532-1.903-2.578-1.241-2.324 1.715.658 19.43-4.862 31.444-9.798 1.214-.499 2.295-.976 3.409-1.457l9.233-3.064 5.745-4.845c4.454-3.037 8.275-6.509 12.546-11.156z"
   style="fill:#92c9d2;fill-opacity:1;stroke:#92c9d2;stroke-width:2.46980262;stroke-opacity:1"
   transform="matrix(-1 0 0 1 285.417 0)"
   id="path4" />
    <path
   d="M12.183 199.718c28.443-.328 59.405-.215 75.377-5.025.864.64 1.737 1.234 2.563 2.06 6.31 6.31 6.13 6.402-15.61 7.917-5.771.402-18.428.6-28.125.44-18.372-.302-26.425.67-33.767-2.577-.814-.36.065-2.54-.438-2.815z"
   style="fill:#e59d48;fill-opacity:1;stroke:#e59d48;stroke-width:2.46980262;stroke-opacity:1"
   transform="matrix(-1 0 0 1 285.417 0)"
   id="path5" />
    <path
   d="M28.398 177.83c.376 0 3.066 1.488 5.978 3.306 8.839 5.517 16.822 7.712 30.903 8.498 12.674.707 17.995 1.888 22.28 5.059l-75.376 5.025c-1.693-.928-2.317-1.704-2.317-4.019 0-4.311 3.561-8.543 11.605-13.794 3.434-2.241 6.55-4.075 6.927-4.075z"
   style="fill:#e59d48;fill-opacity:1;stroke:#e59d48;stroke-width:2.46980262;stroke-opacity:1"
   transform="matrix(-1 0 0 1 285.417 0)"
   id="path6" />
    <path
   d="M218.142 130.482c12.103-12.098 21.132-25.335 27.812-38.749 1.48 1.786 3.025 3.635 3.86 4.852 5.148 7.514 5.39 6.027-3.003 18.278-7.106 10.372-16.224 21.834-20.024 25.17-2.941 2.582-3.041 2.606-4.176.986-1.186-1.694-2.907-6.024-4.47-10.537z"
   style="fill:#e59d48;fill-opacity:1;stroke:#e59d48;stroke-width:2.46980262;stroke-opacity:1"
   transform="matrix(-1 0 0 1 285.417 0)"
   id="path7" />
    <path
   d="M226.79 72.041c1.379-.003 12.53 11.686 19.164 19.692l-27.812 38.75c-1.09-3.15-2.186-6.464-2.624-8.72-1.654-8.514-.66-23.528 2.097-31.668 2.68-7.917 7.831-18.052 9.176-18.054z"
   style="fill:#e59d48;fill-opacity:1;stroke:#e59d48;stroke-width:2.46980262;stroke-opacity:1"
   transform="matrix(-1 0 0 1 285.417 0)"
   id="path8" />
    <path
   d="M183.029 230.949c39.001-.23 40.929-.315 40.929-1.777 0-1.447-1.672-1.568-29.103-2.091-16.006-.306-35.557-.56-43.447-.566l-14.346-.01 6.558-2.864c8.036-3.508 14.56-7.356 32.246-19.016 16.595-10.941 24.97-15.09 43.054-21.326 12.302-4.242 26.46-10.392 27.685-12.026.242-.324 2.708-2.257 5.478-4.297 13.373-9.843 22.931-20.661 26.365-29.84 4.788-12.796-.237-24.132-14.481-32.669-3.556-2.13-6.021-4.517-8.945-8.657-9.47-13.408-22.204-26.154-35.682-35.713-7.443-5.279-20.732-11.448-28.452-13.209-3.15-.718-3.42-.598-7.612 3.366-8.85 8.37-17.887 10.686-35.658 9.135-21.064-1.838-27.926-.3-34.887 7.822-5.018 5.854-12.349 23.69-11.088 26.975 1.138 2.966 2.953 1.3 4.685-4.3 2.491-8.058 2.601-8.177 6.45-6.906 4.48 1.478 10.737 7.615 12.905 12.655 3.714 8.631 3 15.925-2.657 27.16-11.174 22.19-32.247 37.604-45.452 33.246-3.624-1.196-3.73-1.792-.96-5.422 2.517-3.301 2.545-3.555.509-4.644-1.37-.734-2.16-.07-5.724 4.814l-4.133 5.666-10.019 3.649c-22.18 8.078-38.237 16.506-46.13 24.212-7.12 6.952-7.647 11.92-2.371 22.331 4.125 8.14 11.124 14.152 20.644 17.73l5.03 1.892-4.84.5c-5.388.556-7.233 1.658-5.566 3.324 1.084 1.085 63.465 1.421 159.015.856zm-118.59-4.453c-19.108-1.458-36.013-5.687-42.862-10.724-3.899-2.867-8.826-8.819-7.63-9.217.461-.154 2.828.31 5.26 1.033 11.203 3.327 36.837 3.635 69.16.832 26.821-2.326 39.836-5.345 54.152-12.564 9.668-4.874 17.26-10.402 27.453-19.987 9.813-9.227 14.587-11.938 34.274-19.463 15.78-6.03 21.33-8.94 27.081-14.197 4.885-4.465 17.26-20.534 23.083-29.972 1.953-3.166 3.86-5.76 4.24-5.763 1.484-.015 8.205 4.463 11.507 7.668 4.38 4.25 5.856 7.766 5.846 13.916-.015 8.854-6.464 19.06-18.314 28.984-13.537 11.337-22.152 16.01-42.237 22.911-17.06 5.861-26.543 10.762-46.658 24.113-8.68 5.76-18.124 11.655-20.988 13.1-11.099 5.598-23.383 7.948-48.524 9.281-18.681.991-22.418.997-34.843.049zm-43.238-22.968c-6.2-1.756-10.538-3.86-11.61-5.628-.446-.737-.54-2.437-.207-3.779.768-3.105 8.788-10.948 14.643-14.32l4.504-2.594 5.76 3.552c9.408 5.8 17.392 7.985 32.187 8.806 13.174.732 17.71 1.79 22.331 5.205 3.634 2.687 6.459 7.355 4.997 8.258-.605.374-5.477.93-10.826 1.234s-10.103.704-10.565.888-11.04.215-23.508.07c-18.2-.212-23.661-.546-27.705-1.692zm77.334-3.357c-1.747-4.18-6.752-9.339-11-11.335-5.426-2.55-9.844-3.349-23.266-4.205-12.884-.822-19.07-2.462-27.147-7.195-3.616-2.12-3.88-2.47-2.577-3.423 1.866-1.364 26.62-11.186 29.791-11.82 2.329-.466 2.426-.35 2.996 3.59 1.052 7.255 2.296 11.207 3.53 11.207 1.87 0 2.192-2.04 1.13-7.151-.54-2.605-.778-4.94-.528-5.19s2.59 1.449 5.201 3.775c2.61 2.327 7.011 5.438 9.779 6.913 4.563 2.432 5.155 2.56 6.344 1.37 1.08-1.08 1.121-1.541.232-2.613-.594-.716-1.48-1.302-1.969-1.302-1.597 0-11.016-6.57-14.428-10.064l-3.336-3.416 2.744.956c4.822 1.681 13.462.64 19.528-2.351 14.442-7.124 29.02-24.47 34.988-41.63 5.192-14.93-1.197-30.559-15.104-36.945-2.193-1.007-3.988-2.124-3.988-2.482 0-1.414 4.161-7.128 7.014-9.633 5.3-4.654 8.94-5.083 29.124-3.432 18.782 1.536 28.005-.718 36.873-9.013 4.025-3.766 4.396-3.927 8.091-3.51 4.109.463 17.968 6.838 17.968 8.265 0 .464-2.334 3.555-5.185 6.868-11.08 12.873-23.03 30.28-29.26 42.624-7.445 14.75-10.198 28.147-10.41 50.672l-.14 15.034-6.678 5.386c-14.844 11.973-29.896 18.502-49.806 21.604-3.985.621-7.713 1.166-8.284 1.21s-1.573-1.199-2.227-2.764zm70.85-40.349c0-10.846 1.969-26.657 4.29-34.465 2.503-8.417 8.173-19.404 16.248-31.484 6.907-10.332 19.349-26.373 23.234-29.956l1.985-1.83 3.865 2.869 3.866 2.87-4.379 8.734c-10.507 20.96-11.179 42.81-1.933 62.868 2.23 4.839 2.47 5.915 1.464 6.562-.662.425-6.115 2.675-12.118 5s-13.716 5.428-17.14 6.893c-6.305 2.697-15.345 8.096-16.391 9.788-.314.508-1.115.924-1.78.924-.977 0-1.21-1.695-1.21-8.773zm50.537-23.026c-8.664-19.377-7.705-39.658 2.823-59.692 1.705-3.245 3.421-5.9 3.814-5.9 1.36 0 16.322 15.562 21.096 21.941 7.767 10.38 7.712 9.402 1.081 19.402-10.425 15.724-22.409 30.02-25.163 30.02-.588 0-2.231-2.597-3.65-5.771zm-133.606-.194c.842-1.573.76-2.055-.502-2.979-1.292-.945-1.678-.857-2.71.618-.663.945-1.072 1.801-.91 1.902s.931.668 1.707 1.26c1.2.915 1.56.795 2.415-.801zm8.223-13.457c.934-1.494.932-1.91-.007-2.506-1.867-1.183-3.081-.838-3.679 1.044-.355 1.12-.141 2.053.573 2.506 1.63 1.032 1.867.953 3.114-1.044zm6.023-14.634c1.053-2.77 1.095-2.616-.872-3.13-1.893-.495-3.79 2.076-3.018 4.09.74 1.928 3.004 1.37 3.89-.96z"
   style="fill:#63639b;fill-opacity:1;stroke:#63639b;stroke-width:3.0908978;stroke-miterlimit:4;stroke-dasharray:none;stroke-opacity:1"
   transform="matrix(-1 0 0 1 285.417 0)"
   id="path9" />
    <path
   d="M190.996 48.716c-3.122-7.913.488-12.205 8.142-14.32"
   style="fill:none;fill-rule:evenodd;stroke:#63639b;stroke-width:7.21209526;stroke-linecap:round;stroke-linejoin:miter;stroke-miterlimit:4;stroke-dasharray:none;stroke-opacity:1"
   transform="matrix(-1 0 0 1 285.417 0)"
   id="path10" />
</svg>
